# xmcd CD database file
#
# Track frame offsets:
#	150
#	15443
#	42769
#	59609
#	75524
#	99976
#	126711
#	146380
#	171398
#	186127
#	198430
#	223045
#	253384
#	287663
#	300850
#	319477
#
# Disc length: 4518 seconds
#
# Revision: 2
# Processed by: cddbd v1.5.2PL0 Copyright (c) Steve Scherf et al.
# Submitted via: CDex 1.70beta2
#
DISCID=ea11a410
DTITLE=Various Artist - All  That  Jazzy  Love  CD-4
DYEAR=1900
DGENRE=Jazz
TTITLE0=Louis  Armstrong - La  Vie  En  Rose
TTITLE1=Charlie Haden Quartet West - Here's  Looking  At  You
TTITLE2=Mel  Torme - Thr First Time Ever .....
TTITLE3=Count  Basie - Splanky
TTITLE4=Richard  " Groove " Holmes - Slo  Blooze
TTITLE5=Grover  Washington,  Jr. - Black  Frost
TTITLE6=Jimmy  Scott - When  I  Fall  In  Love
TTITLE7=Gerry  Mulligan - Lonely  Town
TTITLE8=Charlie  Parker - Meandering
TTITLE9=Gene  Ammons - Stairway  To  The  Stars
TTITLE10=Gerry  Mulligan - Inside  Impromptu
TTITLE11=H. Sweets  Edison ..... - September  Song
TTITLE12=Stanley  Turrentine - I  Told  Jesus
TTITLE13=Lester  Young - These  Foolish  Things
TTITLE14=Duke  Ellington - My  Little  Brown  Book
TTITLE15=Ben  Webster - Time  On  My  Hands
EXTD=
EXTT0=
EXTT1=
EXTT2=
EXTT3=
EXTT4=
EXTT5=
EXTT6=
EXTT7=
EXTT8=
EXTT9=
EXTT10=
EXTT11=
EXTT12=
EXTT13=
EXTT14=
EXTT15=
PLAYORDER=
